<svg xmlns="http://www.w3.org/2000/svg" viewBox="0 0 283.46 283.46"><defs><style>.a{fill:#e2c201;}.b{fill:#fff;}</style></defs><path class="a" d="M216.7,44.48C212.8,40.67,207,37.07,199.59,34,184.9,28,164.3,24.1,141.52,24.09h-.84C106.74,24.16,77.75,33,66.12,44.5c-3.88,3.79-5.77,7.69-5.76,11.55s1.88,7.74,5.77,11.56S75.87,75,83.23,78.05h0C97.92,84.14,118.52,88,141.3,88h.86c33.93-.06,62.92-8.88,74.55-20.39,3.88-3.81,5.76-7.7,5.75-11.55S220.59,48.3,216.7,44.48ZM199.86,68.27A51.14,51.14,0,0,1,185.93,74c-11.52,3.15-27.19,5.07-44.51,5.08C115.36,79,93.28,74.87,82.94,68.25c-3.38-2.22-5.81-4.88-5.88-8.54s2.5-6.24,5.9-8.48h0a51.19,51.19,0,0,1,13.94-5.7c11.51-3.16,27.19-5.07,44.52-5.08,26.05.07,48.13,4.18,58.47,10.8,3.38,2.23,5.81,4.88,5.88,8.54S203.27,66,199.86,68.27Z"/><path class="b" d="M173.37,242.63s-1.94-9.92-13.91-5.19c-11,4.34-17,.73-18,.1v-.1l-.08.05-.07-.05v.1c-.94.63-7,4.24-18-.1-12-4.73-13.91,5.19-13.91,5.19,7.91,16,30,16.71,31.88,16.74h.15C143.38,259.34,165.46,258.65,173.37,242.63Z"/><path class="b" d="M71.53,138.33C55.09,131.7,43,121.39,36.41,105.47c-4.5-10.86-5.53-22.21-4.18-34.35,20.58,32.63,51.46,38.58,87,34.8-3.88,2.38-7.08,4.1-10,6.2-5.51,3.93-10.06,8.74-11.27,15.72a19.43,19.43,0,0,0,4.85,16.71,23.32,23.32,0,0,0,4.31,4c10,6.75,13.08,16.13,11.37,27.8-2.34,15.83-7.25,30.47-18,42.68-.81.91-1.69,1.77-2.56,2.63a6.75,6.75,0,0,1-1,.65c-.68-10.37-.8-20.72-2.18-30.89-1.4-10.39-5.87-19.85-11.37-28.34-9,4.76-17.63,9.66-26.56,13.89-8,3.78-16.51,6.27-25.59,5.53a17.83,17.83,0,0,1-13.44-7.28c-2.29-3-2.38-6,.22-8.61a81.92,81.92,0,0,1,10.79-9.36,128.34,128.34,0,0,1,39.66-17.9C69.27,139.14,70,138.84,71.53,138.33Z"/><path class="b" d="M211.93,138.33c16.44-6.63,28.53-16.94,35.13-32.86,4.5-10.86,5.53-22.21,4.18-34.35-20.58,32.63-51.47,38.58-87,34.8,3.88,2.38,7.08,4.1,10,6.2,5.52,3.93,10.07,8.74,11.28,15.72a19.47,19.47,0,0,1-4.86,16.71,23.26,23.26,0,0,1-4.3,4c-10,6.75-13.09,16.13-11.37,27.8,2.33,15.83,7.24,30.47,18,42.68.81.91,1.69,1.77,2.56,2.63a6.91,6.91,0,0,0,1,.65c.68-10.37.8-20.72,2.17-30.89,1.41-10.39,5.88-19.85,11.38-28.34,9,4.76,17.63,9.66,26.55,13.89,8,3.78,16.51,6.27,25.59,5.53a17.82,17.82,0,0,0,13.44-7.28c2.3-3,2.38-6-.22-8.61a81.84,81.84,0,0,0-10.78-9.36A128.45,128.45,0,0,0,215,139.35C214.2,139.14,213.45,138.84,211.93,138.33Z"/><path class="b" d="M164.51,225.56c-6.32.95-20.71,3.88-22.94,4,0,0,0,0,0,0l-.06,0h-.18s0,0,0,0,0,0,0,0c-2.23-.16-16.62-3.09-22.95-4-6.84-1-4.87,3.93-3.22,6.2,7.15,7.15,23.82,11.72,26.18,12.35v.07l.14,0,.15,0v-.07c2.36-.63,19-5.2,26.18-12.35C169.39,229.49,171.35,224.53,164.51,225.56Z"/></svg>